<svg version="1.1" id="Layer_1" xmlns="http://www.w3.org/2000/svg" xmlns:xlink="http://www.w3.org/1999/xlink" x="0px" y="0px"
     width="100%" viewBox="0 0 153 152" xml:space="preserve">
<path fill="#00D492" d="M154.000,80.000 C154.000,80.444 154.000,80.888 153.649,81.580 C140.936,75.080 128.518,68.433 116.226,61.559 C103.966,54.702 91.880,47.532 79.576,40.757 C78.228,40.015 75.660,40.429 74.153,41.235 C70.064,43.421 66.329,46.262 62.295,48.565 C48.696,56.326 35.034,63.978 21.383,71.649 C14.603,75.459 7.795,79.218 1.000,83.000 C1.000,70.645 1.000,58.291 1.347,45.389 C2.463,44.538 3.285,44.326 3.992,43.916 C24.481,32.047 44.992,20.216 65.403,8.213 C68.830,6.197 71.812,3.423 75.000,1.000 C76.066,1.000 77.133,1.000 78.759,1.295 C82.098,3.588 84.737,5.830 87.683,7.542 C105.107,17.666 122.581,27.702 140.086,37.683 C144.636,40.277 149.357,42.569 154.000,45.000 C154.000,45.444 154.000,45.888 153.866,47.056 C153.822,56.852 153.911,65.926 154.000,75.000 C154.000,75.444 154.000,75.888 153.922,76.912 C153.896,78.327 153.948,79.163 154.000,80.000 z"/>
<path fill="#00D492" d="M0.999,121.000 C1.000,112.979 1.000,104.958 1.342,96.349 C5.460,94.171 9.236,92.581 13.023,91.003 C13.034,91.015 12.990,91.011 13.108,90.683 C14.242,89.546 15.166,88.574 16.286,87.954 C24.281,83.530 32.425,79.364 40.311,74.758 C51.482,68.233 62.423,61.315 73.596,54.794 C75.176,53.872 77.962,53.378 79.416,54.148 C88.936,59.185 98.285,64.554 107.611,69.949 C123.105,78.913 138.540,87.977 154.000,97.000 C154.000,105.020 154.000,113.041 153.640,121.612 C151.452,122.940 149.232,123.298 147.868,124.572 C143.241,128.893 139.279,126.078 135.272,123.781 C132.550,122.221 130.069,120.242 127.347,118.681 C112.413,110.121 97.377,101.740 82.524,93.042 C78.990,90.973 76.111,91.110 72.807,93.122 C65.904,97.326 58.938,101.429 51.951,105.494 C41.774,111.414 31.365,116.964 21.429,123.262 C15.941,126.741 11.225,128.304 5.866,123.491 C4.555,122.314 2.638,121.812 0.999,121.000 z"/>
<path fill="#00D492" d="M0.999,121.468 C2.638,121.812 4.555,122.314 5.866,123.491 C11.225,128.304 15.941,126.741 21.429,123.262 C31.365,116.964 41.774,111.414 51.951,105.494 C58.938,101.429 65.904,97.326 72.807,93.122 C76.111,91.110 78.990,90.973 82.524,93.042 C97.377,101.740 112.413,110.121 127.347,118.681 C130.069,120.242 132.550,122.221 135.272,123.781 C139.279,126.078 143.241,128.893 147.868,124.572 C149.232,123.298 151.452,122.940 153.640,122.081 C154.000,132.278 154.000,142.557 154.000,153.000 C136.979,153.000 119.958,153.000 102.606,152.694 C103.528,151.345 104.665,150.107 106.052,149.291 C111.497,146.088 117.097,143.145 122.493,139.863 C127.652,136.725 127.633,133.920 122.471,130.939 C108.830,123.059 95.145,115.254 81.422,107.517 C78.546,105.896 75.680,105.747 72.541,107.720 C65.959,111.857 59.133,115.606 52.384,119.473 C45.758,123.270 39.027,126.893 32.508,130.864 C30.681,131.977 29.441,134.051 27.931,135.685 C29.396,136.930 30.713,138.434 32.353,139.371 C37.600,142.367 43.027,145.047 48.260,148.067 C50.657,149.450 52.762,151.339 55.000,153.000 C37.092,153.000 19.184,153.000 1.000,153.000 C1.000,142.647 1.000,132.292 0.999,121.468 z"/>
<path fill="#00D492" d="M13.011,90.991 C9.236,92.581 5.460,94.171 1.342,95.880 C1.000,91.975 1.000,87.950 1.000,83.463 C7.795,79.218 14.603,75.459 21.383,71.649 C35.034,63.978 48.696,56.326 62.295,48.565 C66.329,46.262 70.064,43.421 74.153,41.235 C75.660,40.429 78.228,40.015 79.576,40.757 C91.880,47.532 103.966,54.702 116.226,61.559 C128.518,68.433 140.936,75.080 153.649,81.913 C154.000,86.689 154.000,91.378 154.000,96.533 C138.540,87.977 123.105,78.913 107.611,69.949 C98.285,64.554 88.936,59.185 79.416,54.148 C77.962,53.378 75.176,53.872 73.596,54.794 C62.423,61.315 51.482,68.233 40.311,74.758 C32.425,79.364 24.281,83.530 16.286,87.954 C15.166,88.574 14.242,89.546 13.113,90.677 z"/>
<path fill="#00D492" d="M63.468,153.000 C67.514,150.016 71.993,146.976 76.581,144.110 C77.244,143.696 78.625,143.789 79.341,144.211 C83.873,146.881 88.310,149.711 92.889,152.743 C83.312,153.000 73.624,153.000 63.468,153.000 z"/>

<path fill="none" d="M154.000,44.531 C149.357,42.569 144.636,40.277 140.086,37.683 C122.581,27.702 105.107,17.666 87.683,7.542 C84.737,5.830 82.098,3.588 79.159,1.295 C103.907,1.000 128.815,1.000 154.000,1.000 z"/>
<path fill="none" d="M74.531,1.000 C71.812,3.423 68.830,6.197 65.403,8.213 C44.992,20.216 24.481,32.047 3.992,43.916 C3.285,44.326 2.463,44.538 1.347,44.921 C1.000,30.387 1.000,15.775 1.000,1.000 C25.354,1.000 49.708,1.000 74.531,1.000 z"/>
</svg>
